<svg xmlns="http://www.w3.org/2000/svg" viewBox="0 0 73.682 79.834">
  <path d="M11.475-61.963a2.145,2.145,0,0,0,1.514-.537L26.123-72.559a2.118,2.118,0,0,0,.928-1.709,2.657,2.657,0,0,0-1.025-2.1,10.114,10.114,0,0,0-6.445-2.1A11.024,11.024,0,0,0,8.545-67.432a10.584,10.584,0,0,0,.684,3.906A2.457,2.457,0,0,0,11.475-61.963Zm64.4,0a2.65,2.65,0,0,0,2.246-1.562,9.5,9.5,0,0,0,.684-3.906A11.034,11.034,0,0,0,67.725-78.467a10.114,10.114,0,0,0-6.445,2.1,2.812,2.812,0,0,0-1.025,2.1,2.178,2.178,0,0,0,.977,1.709L74.316-62.5A2.186,2.186,0,0,0,75.879-61.963ZM11.133.293A3.4,3.4,0,0,0,15.967.244l5.957-5.957a36.5,36.5,0,0,0,21.729,7.08A36.536,36.536,0,0,0,65.43-5.713L71.387.244a3.4,3.4,0,0,0,4.834.049,3.331,3.331,0,0,0-.049-4.736l-5.713-5.713A36.811,36.811,0,0,0,80.518-35.449,36.822,36.822,0,0,0,43.652-72.266,36.78,36.78,0,0,0,6.836-35.449,36.59,36.59,0,0,0,16.895-10.156L11.182-4.443A3.331,3.331,0,0,0,11.133.293ZM27-30.908a2.981,2.981,0,0,1-3.027-3.027A2.971,2.971,0,0,1,27-36.914H40.625V-56.2A2.97,2.97,0,0,1,43.6-59.229,2.981,2.981,0,0,1,46.631-56.2v22.266A2.981,2.981,0,0,1,43.6-30.908Z" transform="translate(-6.836 78.467)"/>
</svg>
