<?xml version="1.0" encoding="utf-8"?>
<!-- Generator: Adobe Illustrator 16.0.0, SVG Export Plug-In . SVG Version: 6.00 Build 0)  -->
<!DOCTYPE svg PUBLIC "-//W3C//DTD SVG 1.1//EN" "http://www.w3.org/Graphics/SVG/1.1/DTD/svg11.dtd">
<svg version="1.1" id="Layer_1" xmlns="http://www.w3.org/2000/svg" xmlns:xlink="http://www.w3.org/1999/xlink" x="0px" y="0px"
	 width="612px" height="792px" viewBox="0 0 612 792" enable-background="new 0 0 612 792" xml:space="preserve">
<g>
	<g>
		<path d="M364.951,395.871L136.003,624.828c-6.304,6.289-9.771,14.698-9.771,23.664c0,8.971,3.468,17.375,9.771,23.674
			l20.063,20.052c6.294,6.31,14.707,9.782,23.674,9.782c8.966,0,17.369-3.473,23.669-9.782l272.599-272.594
			c6.323-6.319,9.786-14.763,9.762-23.738c0.024-9.017-3.433-17.45-9.762-23.773L203.662,99.782
			c-6.3-6.31-14.703-9.782-23.675-9.782c-8.966,0-17.369,3.473-23.674,9.782l-20.057,20.052c-13.051,13.051-13.051,34.297,0,47.343
			L364.951,395.871z"/>
	</g>
</g>
</svg>
