<svg xmlns="http://www.w3.org/2000/svg" viewBox="0 0 119.629 59.863">
  <g transform="translate(-9.766 65.771)">
    <path d="M29.785-5.908h67.92c6.738,0,11.914-.684,15.625-4.395,3.76-3.76,4.395-8.887,4.395-15.625V-45.752c0-6.738-.635-11.914-4.395-15.625-3.711-3.711-8.887-4.395-15.625-4.395H29.639c-6.543,0-11.768.684-15.479,4.395S9.766-52.49,9.766-45.947v20.02c0,6.738.635,11.914,4.346,15.625C17.871-6.592,23.047-5.908,29.785-5.908Zm-1.025-5.42c-4.248,0-8.3-.635-10.645-2.978s-2.93-6.348-2.93-10.6V-46.631c0-4.394.586-8.447,2.881-10.791,2.344-2.344,6.494-2.93,10.84-2.93H98.73c4.2,0,8.3.635,10.645,2.93,2.344,2.344,2.93,6.4,2.93,10.645V-24.9c0,4.248-.635,8.252-2.93,10.6-2.344,2.344-6.445,2.978-10.645,2.978Zm-.537-4.834H99.268c3.271,0,5.029-.44,6.445-1.758,1.367-1.367,1.758-3.174,1.758-6.445v-23c0-3.223-.44-5.029-1.758-6.4-1.367-1.367-3.174-1.758-6.445-1.758H28.223c-3.271,0-5.078.391-6.445,1.758s-1.758,3.174-1.758,6.4v23c0,3.271.391,5.078,1.758,6.445C23.145-16.6,24.951-16.162,28.223-16.162Zm94.336-10.5c2.929-.146,6.836-3.906,6.836-9.57s-3.907-9.424-6.836-9.57Z"/>
  </g>
</svg>
