<svg xmlns="http://www.w3.org/2000/svg" viewBox="0 0 90.234 73.73">
  <path id="Tracé_32" data-name="Tracé 32" d="M22.217.391H87.549Q100,.391,100-11.914V-51.855c0-8.2-4.15-12.256-12.451-12.256H79.1c-2.979,0-3.906-.733-5.566-2.539L70.557-70.02c-1.9-2.051-3.955-3.32-7.959-3.32H47.119c-4,0-6.1,1.27-7.959,3.32L36.182-66.65c-1.66,1.807-2.637,2.539-5.566,2.539h-8.4c-8.3,0-12.451,4.053-12.451,12.256v39.941Q9.766.391,22.217.391Zm.1-7.08c-3.516,0-5.518-1.855-5.518-5.566V-51.465c0-3.711,2-5.615,5.518-5.615H32.471c3.418,0,5.322-.732,7.227-2.832l2.881-3.271c2.2-2.441,3.32-3.125,6.836-3.125h10.84c3.516,0,4.639.684,6.836,3.125l2.93,3.271c1.855,2.1,3.809,2.832,7.227,2.832H87.451c3.516,0,5.518,1.9,5.518,5.615v39.209c0,3.711-2,5.566-5.518,5.566ZM54.883-12.3a20.725,20.725,0,0,0,20.8-20.8,20.735,20.735,0,0,0-20.8-20.85,20.735,20.735,0,0,0-20.8,20.85A20.725,20.725,0,0,0,54.883-12.3Zm27.49-29.98a4.96,4.96,0,0,0,4.98-4.932,4.97,4.97,0,0,0-4.98-4.98,4.97,4.97,0,0,0-4.98,4.98A4.96,4.96,0,0,0,82.373-42.285ZM54.883-18.9A14.233,14.233,0,0,1,40.625-33.105,14.243,14.243,0,0,1,54.883-47.363,14.243,14.243,0,0,1,69.141-33.105,14.2,14.2,0,0,1,54.883-18.9Z" transform="translate(-9.766 73.34)"/>
</svg>
