<svg xmlns="http://www.w3.org/2000/svg" viewBox="0 0 78.271 74.609">
  <g transform="translate(-9.766 72.51)">
    <path d="M20.9-50.293A11.171,11.171,0,0,0,31.982-61.377,11.181,11.181,0,0,0,20.9-72.51,11.159,11.159,0,0,0,9.766-61.377,11.149,11.149,0,0,0,20.9-50.293Zm28.027,0A11.171,11.171,0,0,0,60.01-61.377,11.181,11.181,0,0,0,48.926-72.51,11.191,11.191,0,0,0,37.793-61.377,11.181,11.181,0,0,0,48.926-50.293Zm28.027,0A11.139,11.139,0,0,0,88.037-61.377,11.149,11.149,0,0,0,76.953-72.51,11.191,11.191,0,0,0,65.82-61.377,11.181,11.181,0,0,0,76.953-50.293ZM20.9-24.072A11.171,11.171,0,0,0,31.982-35.156,11.181,11.181,0,0,0,20.9-46.289,11.159,11.159,0,0,0,9.766-35.156,11.149,11.149,0,0,0,20.9-24.072Zm28.027,0A11.171,11.171,0,0,0,60.01-35.156,11.181,11.181,0,0,0,48.926-46.289,11.191,11.191,0,0,0,37.793-35.156,11.181,11.181,0,0,0,48.926-24.072Zm28.027,0A11.139,11.139,0,0,0,88.037-35.156,11.149,11.149,0,0,0,76.953-46.289,11.191,11.191,0,0,0,65.82-35.156,11.181,11.181,0,0,0,76.953-24.072ZM20.9,2.1A11.139,11.139,0,0,0,31.982-8.984,11.213,11.213,0,0,0,20.9-20.117,11.191,11.191,0,0,0,9.766-8.984,11.118,11.118,0,0,0,20.9,2.1Zm28.027,0A11.139,11.139,0,0,0,60.01-8.984,11.213,11.213,0,0,0,48.926-20.117,11.223,11.223,0,0,0,37.793-8.984,11.149,11.149,0,0,0,48.926,2.1Zm28.027,0A11.107,11.107,0,0,0,88.037-8.984,11.181,11.181,0,0,0,76.953-20.117,11.223,11.223,0,0,0,65.82-8.984,11.149,11.149,0,0,0,76.953,2.1Z"/>
  </g>
</svg>
