<svg xmlns="http://www.w3.org/2000/svg" viewBox="0 0 78.857 78.809">
  <g transform="translate(-6.836 74.658)">
    <path  d="M46.24,4.15a39.744,39.744,0,0,0,39.453-39.4c0-21.533-17.969-39.4-39.5-39.4a39.691,39.691,0,0,0-39.355,39.4A39.734,39.734,0,0,0,46.24,4.15ZM40.527-15.43a4.894,4.894,0,0,1-3.906-2.148L25.977-30.957a4.657,4.657,0,0,1-1.025-2.783,3.524,3.524,0,0,1,3.516-3.613,4.028,4.028,0,0,1,3.369,1.807l8.5,11.377,17.09-27.686a3.722,3.722,0,0,1,3.125-2,3.522,3.522,0,0,1,3.76,3.32,6.413,6.413,0,0,1-1.123,2.93L44.189-17.578A4.358,4.358,0,0,1,40.527-15.43Z"/>
  </g>
</svg>
