<svg xmlns="http://www.w3.org/2000/svg" viewBox="0 0 81.982 69.824">
  <g transform="translate(-7.813 70.117)">
    <circle cx="55" cy="-38" r="25" fill="black"></circle>
    <path id="delete-fill-svg" data-name="Tracé 34" d="M78.125-.293c7.715,0,11.67-3.857,11.67-11.475V-58.594c0-7.666-3.955-11.523-11.67-11.523H45.166c-4.395,0-8.057,1.074-11.133,4.3L11.279-42.334c-2.393,2.49-3.467,4.688-3.467,7.08,0,2.344,1.025,4.59,3.467,7.031l22.8,23.291A14.647,14.647,0,0,0,45.166-.293ZM69.238-18.6a2.84,2.84,0,0,1-2.1-.879L55.713-30.908,44.287-19.482a2.949,2.949,0,0,1-2.148.879,3.063,3.063,0,0,1-3.076-3.076,2.965,2.965,0,0,1,.928-2.148L51.367-35.205,39.99-46.631a2.888,2.888,0,0,1-.928-2.148A3.105,3.105,0,0,1,42.139-51.9a3,3,0,0,1,2.148.928L55.713-39.6,67.09-50.977a3.172,3.172,0,0,1,2.148-.928,3.115,3.115,0,0,1,3.125,3.125,3.081,3.081,0,0,1-.928,2.148L60.059-35.205,71.436-23.828a3.172,3.172,0,0,1,.928,2.148A3.105,3.105,0,0,1,69.238-18.6Z"/>
  </g>
</svg>
