<svg xmlns="http://www.w3.org/2000/svg" viewBox="0 0 76.816 74.616">
  <path id="Tracé_66" data-name="Tracé 66" d="M13.916-16.943H29.248v14.8A3.859,3.859,0,0,0,30.317.824,3.859,3.859,0,0,0,33.248,2,3.859,3.859,0,0,0,36.179.824a3.859,3.859,0,0,0,1.069-2.972v-14.8h21.68v14.8A3.859,3.859,0,0,0,60,.824,3.859,3.859,0,0,0,62.928,2,3.859,3.859,0,0,0,65.859.824a3.859,3.859,0,0,0,1.069-2.972v-14.8H82.422a3.885,3.885,0,0,0,2.963-1.079,3.885,3.885,0,0,0,1.187-2.921,3.871,3.871,0,0,0-1.16-2.964A3.871,3.871,0,0,0,82.422-25H66.943V-45.361H82.422a3.859,3.859,0,0,0,2.972-1.069,3.859,3.859,0,0,0,1.178-2.931A3.834,3.834,0,0,0,85.4-52.3a3.834,3.834,0,0,0-2.981-1.06H66.943v-15.1a3.834,3.834,0,0,0-1.06-2.981,3.834,3.834,0,0,0-2.94-1.169A3.834,3.834,0,0,0,60-71.438a3.834,3.834,0,0,0-1.06,2.981v15.088H37.256V-68.457a3.834,3.834,0,0,0-1.06-2.981,3.834,3.834,0,0,0-2.94-1.169,3.834,3.834,0,0,0-2.94,1.169,3.834,3.834,0,0,0-1.06,2.981v15.088H13.916a3.834,3.834,0,0,0-2.981,1.06,3.834,3.834,0,0,0-1.169,2.94,3.859,3.859,0,0,0,1.178,2.931,3.859,3.859,0,0,0,2.972,1.069H29.248V-25H13.916a3.871,3.871,0,0,0-2.988,1.091,3.871,3.871,0,0,0-1.162,2.962,3.885,3.885,0,0,0,1.185,2.924,3.885,3.885,0,0,0,2.965,1.08ZM37.256-25V-45.361h21.68V-25Z" transform="translate(-9.761 72.611)"/>
</svg>
