<svg xmlns="http://www.w3.org/2000/svg" viewBox="0 0 77.393 77.393">
  <g transform="translate(-6.836 73.926)">
    <path d="M45.508,3.467A38.961,38.961,0,0,0,84.229-35.205,39,39,0,0,0,45.508-73.926,38.929,38.929,0,0,0,6.836-35.205,38.951,38.951,0,0,0,45.508,3.467Zm0-5.713A32.842,32.842,0,0,1,12.6-35.205a32.822,32.822,0,0,1,32.91-33.008A32.967,32.967,0,0,1,78.516-35.205,32.894,32.894,0,0,1,45.508-2.246Zm-.244-47.022a4.543,4.543,0,0,0,4.541-4.59,4.543,4.543,0,0,0-4.541-4.59,4.585,4.585,0,0,0-4.59,4.59A4.585,4.585,0,0,0,45.264-49.268Zm-6.543,35.01H54.395A2.388,2.388,0,0,0,56.836-16.7a2.407,2.407,0,0,0-2.441-2.393H49.219V-39.551c0-1.807-.928-3.027-2.637-3.027H39.307a2.45,2.45,0,0,0-2.49,2.393,2.419,2.419,0,0,0,2.49,2.393H43.9v18.7H38.721A2.407,2.407,0,0,0,36.279-16.7,2.388,2.388,0,0,0,38.721-14.258Z"/>
  </g>
</svg>
