<svg xmlns="http://www.w3.org/2000/svg" viewBox="0 0 85.303 66.699">
  <path d="M52.441-31.055c1.611,0,3.027-.732,4.736-2.49L90.576-66.6c-1.514-1.318-4.2-1.953-7.959-1.953H20.85c-3.174,0-5.42.586-6.689,1.807l33.5,33.2C49.365-31.787,50.83-31.055,52.441-31.055ZM10.644-8.4,37.6-35.254l-27-26.709a14.031,14.031,0,0,0-.83,5.664v42.188A13.315,13.315,0,0,0,10.644-8.4Zm83.545,0a13.315,13.315,0,0,0,.879-5.713V-56.3a12.954,12.954,0,0,0-.879-5.615L67.236-35.254ZM22.217-1.855H83.984c3.125,0,5.322-.586,6.641-1.758L63.037-31.152,60.6-28.711c-2.734,2.637-5.273,3.857-8.154,3.857-2.93,0-5.42-1.221-8.2-3.857l-2.393-2.441L14.356-3.711C15.869-2.49,18.506-1.855,22.217-1.855Z" transform="translate(-9.766 68.555)"/>
</svg>
