<svg xmlns="http://www.w3.org/2000/svg" viewBox="0 0 75.385 101.318">
  <path d="M46.289-90.088c-9.18,0-15.088,7.031-15.137,16.406v7.471L60.889-36.475a18.77,18.77,0,0,0,.537-4.443V-73.584C61.426-83.008,55.518-90.088,46.289-90.088ZM82.031-3.711a1.828,1.828,0,0,0,2.539,0,1.7,1.7,0,0,0,0-2.539L12.842-77.93a1.741,1.741,0,0,0-2.539,0,1.742,1.742,0,0,0,0,2.539ZM14.453-38.965c0,17.432,11.865,30.029,30.078,30.811V7.715H24.463a1.758,1.758,0,0,0,0,3.516H68.115a1.758,1.758,0,0,0,0-3.516H48.047V-8.154a32.843,32.843,0,0,0,17.48-5.518l-2.539-2.539a29.741,29.741,0,0,1-16.7,4.639c-17.236,0-28.32-11.377-28.32-27.49V-48.1a1.751,1.751,0,0,0-1.758-1.758A1.75,1.75,0,0,0,14.453-48.1ZM71.582-25.781,74.268-23.1a32.915,32.915,0,0,0,3.906-15.869V-48.1a1.75,1.75,0,0,0-1.758-1.758A1.75,1.75,0,0,0,74.658-48.1v9.033A28.635,28.635,0,0,1,71.582-25.781ZM46.289-24.414a14.224,14.224,0,0,0,6.787-1.611L31.152-47.949v7.031C31.152-31.494,37.061-24.414,46.289-24.414Z" transform="translate(-9.753 90.088)"/>
</svg>
