<svg xmlns="http://www.w3.org/2000/svg" viewBox="0 0 73.486 73.193">
  <path d="M57.031-64.7h4.834L73-65.43,66.5-59.57,50.781-43.8a3.149,3.149,0,0,0-1.025,2.393,3.089,3.089,0,0,0,3.223,3.027,3.023,3.023,0,0,0,2.246-.928L70.947-55.078l5.859-6.445-.732,11.084v4.834a3.012,3.012,0,0,0,2.978,3.076,3.1,3.1,0,0,0,3.223-3.076V-67.383c0-2.344-1.123-3.516-3.418-3.516H57.031a3.081,3.081,0,0,0-3.076,3.271A3,3,0,0,0,57.031-64.7ZM28.516-17.676C39.795-6.348,53.418,2.295,64.4,2.295A16.1,16.1,0,0,0,77.051-3.32a11.474,11.474,0,0,0,3.223-7.568,5.975,5.975,0,0,0-2.539-5.127l-11.768-8.4a8.4,8.4,0,0,0-4.785-1.953c-1.807,0-3.32,1.025-5.078,2.734l-2.686,2.685a2.021,2.021,0,0,1-1.465.586,3.677,3.677,0,0,1-1.562-.44c-2.441-1.269-6.445-4.883-10.156-8.545-3.662-3.711-7.275-7.715-8.545-10.107a3.907,3.907,0,0,1-.44-1.611,2.021,2.021,0,0,1,.586-1.465l2.686-2.686c1.709-1.709,2.783-3.271,2.783-5.029a8.65,8.65,0,0,0-2-4.834L26.953-66.8a6.228,6.228,0,0,0-5.322-2.637,10.735,10.735,0,0,0-7.422,3.32A17,17,0,0,0,8.789-53.32c0,9.722,6.556,21.263,16.04,31.784C25.871-20.379,27.173-19.012,28.516-17.676Z" transform="translate(-8.789 70.898)"/>
</svg>
