<svg xmlns="http://www.w3.org/2000/svg" viewBox="0 0 75.439 75.439">
  <g transform="translate(-6.836 72.9)">
    <path d="M44.58,2.539a37.854,37.854,0,0,0,37.7-37.744A37.886,37.886,0,0,0,44.531-72.9a37.844,37.844,0,0,0-37.7,37.7A37.9,37.9,0,0,0,44.58,2.539Zm0-25.1c-12.647,0-22.07,5.664-25.244,10.644a34.255,34.255,0,0,1-9.082-23.291A34.259,34.259,0,0,1,44.531-69.482,34.269,34.269,0,0,1,78.857-35.205a34.191,34.191,0,0,1-9.131,23.34C66.6-16.943,57.178-22.559,44.58-22.559Zm0-6.592c7.324,0,12.939-6.25,12.939-14.4,0-7.666-5.713-14.062-12.939-14.062s-13.037,6.4-12.988,14.063C31.592-35.4,37.207-29.2,44.58-29.15Z"/>
  </g>
</svg>
