<svg xmlns="http://www.w3.org/2000/svg" viewBox="0 0 92.382 92.48">
  <path d="M36.621-12.842c14.4,14.453,31.934,25.586,46.24,25.586a21.312,21.312,0,0,0,16.5-7.227c2.637-2.93,4.248-6.3,4.248-9.668a8.152,8.152,0,0,0-3.515-6.885L85.107-21.68c-2.393-1.66-4.346-2.441-6.1-2.441-2.295,0-4.346,1.269-6.592,3.516L68.9-17.09a2.828,2.828,0,0,1-1.9.781,4.04,4.04,0,0,1-2-.586c-3.076-1.66-8.35-6.152-13.232-11.035S42.334-38.037,40.723-41.162a4.187,4.187,0,0,1-.537-2,2.735,2.735,0,0,1,.732-1.855l3.516-3.564c2.2-2.295,3.516-4.3,3.516-6.592,0-1.807-.781-3.76-2.441-6.1l-10.6-14.844a8.37,8.37,0,0,0-7.129-3.613,13.794,13.794,0,0,0-9.521,4.248,21.952,21.952,0,0,0-7.031,16.6C11.231-44.58,22.217-27.246,36.621-12.842Z" transform="translate(-11.231 79.736)"/>
</svg>
