<svg xmlns="http://www.w3.org/2000/svg" viewBox="0 0 90.859 33.817">
  <g transform="translate(-6.854 51.611)">
    <path d="M52.295-51.611c-16.943,0-32.666,3.516-40.43,11.279a16.21,16.21,0,0,0-4.98,12.891,11.412,11.412,0,0,0,3.027,7.666,6.142,6.142,0,0,0,5.42,1.9L29.59-20.312a8.413,8.413,0,0,0,4.834-2c1.27-1.269,1.563-3.125,1.563-5.517v-3.809a2.143,2.143,0,0,1,.635-1.465,2.558,2.558,0,0,1,1.465-.781A75.793,75.793,0,0,1,52.295-35.01c6.152,0,11.475.439,14.209,1.123a3.054,3.054,0,0,1,1.367.781,1.949,1.949,0,0,1,.635,1.465v3.809c0,2.392.342,4.248,1.611,5.517a8.246,8.246,0,0,0,4.785,2L89.111-17.92a6.3,6.3,0,0,0,5.615-1.9,10.812,10.812,0,0,0,2.979-7.617,16.946,16.946,0,0,0-5.273-12.891C84.619-48.145,69.189-51.611,52.295-51.611Z"/>
  </g>
</svg>
