<svg xmlns="http://www.w3.org/2000/svg" viewBox="0 0 98.339 77.539">
  <path id="Tracé_35" data-name="Tracé 35" d="M24.365-48.193c0-8.4,4.443-12.842,12.842-12.842l53.223.049v-3.223c0-6.445-3.467-9.961-10.01-9.961H19.775c-6.543,0-10.01,3.418-10.01,9.961v41.357c0,6.543,3.467,9.961,10.01,9.961h4.59ZM37.4,3.369H98.1c6.543,0,10.009-3.516,10.009-9.912V-48c0-6.4-3.466-9.961-10.009-9.961H37.4c-6.494,0-9.961,3.467-9.961,9.961V-6.592C27.441-.1,30.908,3.369,37.4,3.369ZM53.027-27.393a9.044,9.044,0,0,1-9.033-9.033,9.076,9.076,0,0,1,9.033-9.033,9.066,9.066,0,0,1,8.984,9.033A9.034,9.034,0,0,1,53.027-27.393ZM38.525,1.172c-5.908,0-8.887-2.93-8.887-8.887v-.244L42.09-19.19c1.758-1.611,3.076-2.441,5.127-2.441,2.1,0,3.662.879,5.42,2.49l6.3,5.859L75.781-27.832c2.149-1.807,3.906-2.832,6.3-2.832a9.056,9.056,0,0,1,6.543,2.881l17.285,16.6v3.516c0,5.957-2.978,8.838-8.886,8.838Z" transform="translate(-9.766 74.17)"/>
</svg>
