<svg xmlns="http://www.w3.org/2000/svg" viewBox="0 0 71.973 72.656">
  <path d="M37.988-13.769a28.974,28.974,0,0,0,17.236-5.713L74.023-.635A4.158,4.158,0,0,0,76.855.488a3.838,3.838,0,0,0,3.906-3.955A3.682,3.682,0,0,0,79.639-6.25l-18.7-18.8a28.785,28.785,0,0,0,6.2-17.92,29.237,29.237,0,0,0-29.15-29.2,29.279,29.279,0,0,0-29.2,29.2A29.279,29.279,0,0,0,37.988-13.769Zm0-5.615A23.736,23.736,0,0,1,14.356-42.969,23.736,23.736,0,0,1,37.988-66.553,23.694,23.694,0,0,1,61.572-42.969,23.7,23.7,0,0,1,37.988-19.385Z" transform="translate(-8.789 72.168)"/>
</svg>
