<svg xmlns="http://www.w3.org/2000/svg" viewBox="0 0 125.923 81.83">
  <g id="Groupe_6" data-name="Groupe 6" transform="translate(186.775 -27.962)">
    <path id="Tracé_34" data-name="Tracé 34" d="M83.789,7.755h11.67c4.443,0,6.689-2.492,6.689-7.477V-66.561c0-4.985-2.246-7.477-6.689-7.477H83.789c-4.443,0-6.689,2.492-6.689,7.477V.278C77.1,5.262,79.346,7.755,83.789,7.755Zm-33.691,0H61.816c4.443,0,6.689-2.492,6.689-7.477V-48.606c0-4.985-2.246-7.423-6.689-7.423H50.1c-4.395,0-6.689,2.438-6.689,7.423V.278C43.408,5.262,45.7,7.755,50.1,7.755Zm-33.643,0h11.67c4.443,0,6.738-2.492,6.738-7.477V-29.958c0-5.039-2.295-7.477-6.738-7.477H16.455c-4.443,0-6.689,2.438-6.689,7.477V.278C9.766,5.262,12.012,7.755,16.455,7.755Z" transform="translate(-163 102)"/>
    <path id="Tracé_37" data-name="Tracé 37" d="M81.17.135H92.84c4.443,0,6.738-2.246,6.738-6.738v-17c0-4.541-2.295-6.74-6.738-6.74H81.17c-4.443,0-6.689,2.2-6.689,6.74v17C74.481-2.111,76.727.135,81.17.135Z" transform="translate(-261.256 109.657)"/>
  </g>
</svg>
