<svg xmlns="http://www.w3.org/2000/svg" viewBox="0 0 137.402 93.471">
  <path d="M127.148,11.133a1.814,1.814,0,0,0,2.588-.537,79.28,79.28,0,0,0,14.307-45.85A79.636,79.636,0,0,0,129.736-81.1a1.82,1.82,0,0,0-2.588-.586,1.963,1.963,0,0,0-.341,2.734c7.959,12.354,13.623,26.9,13.623,43.7,0,16.846-4.785,32.129-13.721,43.8A1.779,1.779,0,0,0,127.148,11.133ZM59.619,7.324c2.246,0,3.565-1.66,3.565-3.857V-73.926a3.592,3.592,0,0,0-3.613-3.906,5.978,5.978,0,0,0-4.1,2L32.617-53.662a2.629,2.629,0,0,1-1.855.684H14.795a7.914,7.914,0,0,0-8.154,8.2v19.531a7.926,7.926,0,0,0,8.154,8.252H30.762a2.629,2.629,0,0,1,1.855.684L55.469,5.371A6.037,6.037,0,0,0,59.619,7.324ZM107.959-2A1.734,1.734,0,0,0,110.5-2.49c6.69-8.74,10.352-20.117,10.352-32.764,0-12.7-3.614-24.072-10.352-32.764a1.741,1.741,0,0,0-2.539-.488c-.879.586-.928,1.611-.293,2.637a55.5,55.5,0,0,1,9.522,30.615c0,11.914-3.418,22.559-9.62,30.713A1.717,1.717,0,0,0,107.959-2ZM88.916-14.99a1.766,1.766,0,0,0,2.49-.439,32.693,32.693,0,0,0,6.348-19.824,32.585,32.585,0,0,0-6.348-19.824,1.72,1.72,0,0,0-2.49-.44,1.849,1.849,0,0,0-.342,2.734,29.965,29.965,0,0,1,5.518,17.529,30.081,30.081,0,0,1-5.664,17.725A1.754,1.754,0,0,0,88.916-14.99Z" transform="translate(-6.641 82.006)"/>
</svg>
