<svg xmlns="http://www.w3.org/2000/svg" width="116.797" height="89.551" viewBox="0 0 116.797 89.551">
  <path id="Tracé_23" data-name="Tracé 23" d="M64.111,9.57a5.542,5.542,0,0,0,5.713-5.713V-74.023a5.766,5.766,0,0,0-5.811-5.957c-2.393,0-4,1.025-6.592,3.467L35.791-56.152a1.785,1.785,0,0,1-1.221.439h-14.6c-6.885,0-10.6,3.76-10.6,11.133v18.9c0,7.324,3.711,11.084,10.6,11.084h14.6a1.785,1.785,0,0,1,1.221.439L57.422,6.4C59.766,8.594,61.719,9.57,64.111,9.57ZM110.352-.635a3.971,3.971,0,0,0,5.615-1.172c6.445-8.984,10.2-20.947,10.2-33.447,0-12.549-3.662-24.561-10.2-33.5a4.008,4.008,0,0,0-5.615-1.123c-1.856,1.27-2.149,3.662-.684,5.762a51.877,51.877,0,0,1,8.643,28.857A51.253,51.253,0,0,1,109.668-6.4C108.252-4.3,108.5-1.9,110.352-.635ZM90.869-13.818a3.917,3.917,0,0,0,5.469-1.123c3.808-5.127,6.1-12.647,6.1-20.312s-2.295-15.137-6.1-20.312a3.967,3.967,0,0,0-5.469-1.172,4.048,4.048,0,0,0-.83,6.055c2.832,3.809,4.541,9.619,4.541,15.43a27.492,27.492,0,0,1-4.59,15.478C88.525-17.676,88.77-15.283,90.869-13.818Z" transform="translate(-9.375 79.98)"/>
</svg>
