<svg xmlns="http://www.w3.org/2000/svg" viewBox="0 0 81.755 77.99">
  <g transform="translate(-7.807 74.512)" >
    <path d="M23.486,3.027c.977.732,2.2.586,3.76-.537L48.682-13.184,70.117,2.49c1.563,1.123,2.783,1.27,3.76.537.977-.684,1.27-1.855.635-3.76l-8.3-25.2L87.744-41.455c1.611-1.172,2.051-2.295,1.709-3.418C89.063-46,88.037-46.68,86.035-46.68l-26.514.1L51.416-71.826c-.635-1.9-1.514-2.686-2.734-2.686-1.172,0-2.1.781-2.734,2.686L37.842-46.582l-26.514-.1c-2,0-3.027.684-3.418,1.807-.342,1.123.146,2.246,1.709,3.418L31.152-25.928l-8.3,25.2C22.217,1.172,22.559,2.344,23.486,3.027Z"/>
  </g>
</svg>
