<svg xmlns="http://www.w3.org/2000/svg" width="73.584" height="83.594" viewBox="0 0 73.584 83.594">
  <path id="Tracé_33" data-name="Tracé 33" d="M24.707,2.734H60.645c4.59,0,7.52-2.686,7.715-7.275l2.588-56.641h6.006a2.512,2.512,0,0,0,2.49-2.539,2.543,2.543,0,0,0-2.49-2.539H59.18v-5.859c0-5.273-3.613-8.74-9.326-8.74h-14.4c-5.713,0-9.277,3.467-9.277,8.74v5.859H8.4a2.585,2.585,0,0,0-2.539,2.539A2.553,2.553,0,0,0,8.4-61.182h6.055L17.041-4.541C17.236.049,20.117,2.734,24.707,2.734ZM31.543-66.26v-5.566a4.018,4.018,0,0,1,4.3-4.053H49.512a4.018,4.018,0,0,1,4.3,4.053v5.566ZM27.148-10.205,25.2-52.734a2.357,2.357,0,0,1,2.295-2.539,2.475,2.475,0,0,1,2.344,2.49l1.758,42.529a2.333,2.333,0,0,1-2.246,2.588A2.344,2.344,0,0,1,27.148-10.205Zm13.184,0V-52.783a2.475,2.475,0,0,1,2.344-2.49,2.483,2.483,0,0,1,2.393,2.49L45.02-10.205a2.521,2.521,0,0,1-2.344,2.539A2.521,2.521,0,0,1,40.332-10.205Zm13.428-.049,1.807-42.529a2.469,2.469,0,0,1,2.295-2.49,2.328,2.328,0,0,1,2.295,2.539l-1.9,42.529a2.38,2.38,0,0,1-2.246,2.539A2.362,2.362,0,0,1,53.76-10.254Z" transform="translate(-5.859 80.859)"/>
</svg>
