<svg xmlns="http://www.w3.org/2000/svg" viewBox="0 0 106.446 46.436">
  <path d="M31.836-9.619h60.4a23.112,23.112,0,0,0,22.95-23.242A23.173,23.173,0,0,0,92.041-56.055,23.256,23.256,0,0,0,68.8-32.861a23,23,0,0,0,5.322,14.746H49.854a22.962,22.962,0,0,0,5.273-14.746,23.162,23.162,0,0,0-23.1-23.193A23.267,23.267,0,0,0,8.74-32.861,23.3,23.3,0,0,0,31.836-9.619Zm.2-9.521A13.7,13.7,0,0,1,18.31-32.861,13.691,13.691,0,0,1,32.031-46.533,13.712,13.712,0,0,1,45.7-32.861,13.722,13.722,0,0,1,32.031-19.141Zm60.01,0A13.691,13.691,0,0,1,78.369-32.861,13.681,13.681,0,0,1,92.041-46.533a13.712,13.712,0,0,1,13.672,13.672A13.723,13.723,0,0,1,92.041-19.141Z" transform="translate(-8.74 56.055)"/>
</svg>
