<svg xmlns="http://www.w3.org/2000/svg" viewBox="0 0 131.641 56.641">
  <path d="M39.648-3.564h75a28.3,28.3,0,0,0,28.272-28.32,28.3,28.3,0,0,0-28.272-28.32,28.372,28.372,0,0,0-28.32,28.32,28.277,28.277,0,0,0,8.887,20.557H58.984a28.234,28.234,0,0,0,8.838-20.557,28.247,28.247,0,0,0-28.174-28.32,28.382,28.382,0,0,0-28.369,28.32A28.414,28.414,0,0,0,39.648-3.564Zm0-8.594A19.724,19.724,0,0,1,19.824-31.885,19.766,19.766,0,0,1,39.648-51.66,19.714,19.714,0,0,1,59.375-31.885,19.672,19.672,0,0,1,39.648-12.158Zm75,0A19.672,19.672,0,0,1,94.922-31.885,19.714,19.714,0,0,1,114.648-51.66a19.755,19.755,0,0,1,19.776,19.775A19.714,19.714,0,0,1,114.648-12.158Z" transform="translate(-11.279 60.205)"/>
</svg>
