<svg xmlns="http://www.w3.org/2000/svg" viewBox="0 0 85.196 61.621">
  <path d="M13.574-39.795a1.723,1.723,0,0,0,2.588-.049A45.992,45.992,0,0,1,50.391-54.492a46.2,46.2,0,0,1,34.375,14.7,1.726,1.726,0,0,0,2.49-.049l5.225-5.273a1.557,1.557,0,0,0,.146-2.2c-8.691-10.693-24.951-18.7-42.236-18.7-17.236,0-33.5,8.008-42.187,18.7a1.557,1.557,0,0,0,.146,2.2ZM28.857-24.463a1.682,1.682,0,0,0,2.637-.146,25.907,25.907,0,0,1,18.9-8.4,26.475,26.475,0,0,1,19.092,8.545,1.615,1.615,0,0,0,2.49,0l5.859-5.81a1.511,1.511,0,0,0,.146-2.2c-5.615-6.836-15.918-12.061-27.588-12.061-11.621,0-21.924,5.225-27.539,12.061a1.513,1.513,0,0,0,.146,2.2ZM50.391-4.395c.879,0,1.66-.439,3.076-1.855L62.5-14.941a1.588,1.588,0,0,0,.244-2.148,16.123,16.123,0,0,0-12.354-5.957,15.81,15.81,0,0,0-12.5,6.25,1.446,1.446,0,0,0,.44,1.856L47.314-6.25C48.779-4.834,49.561-4.395,50.391-4.395Z" transform="translate(-7.817 66.016)"/>
</svg>
